/* XPM */
static const char *MenuDlg_WxBitmapButton1_XPM[]={
/* MenuDlg_WxBitmapButton1 */
"94 20 466 2",
"      c None",
" 0    c #000000",
" 1    c #7E613C",
" 2    c #9B7F5B",
" 3    c #876840",
" 4    c #513E26",
" 5    c #7F623C",
" 6    c #624C2F",
" 7    c #59452A",
" 8    c #82643E",
" 9    c #917247",
" a    c #7D613B",
" b    c #524027",
" c    c #896A41",
" d    c #EAE4DC",
" e    c #8D6D43",
" f    c #775C38",
" g    c #94764F",
" h    c #B8A48A",
" i    c #84663F",
" j    c #473722",
" k    c #C2AC77",
" l    c #EBDD9F",
" m    c #96784C",
" n    c #795D39",
" o    c #C1AB75",
" p    c #9B7F59",
" q    c #FBFAF4",
" r    c #E5DFD2",
" s    c #D1C4B0",
" t    c #FAF9F3",
" u    c #C3B39A",
" v    c #AF997A",
" w    c #D8CDBB",
" x    c #41321F",
" y    c #E7DA9D",
" z    c #FBF3BC",
" A    c #E7DBA2",
" B    c #96774B",
" C    c #755A37",
" D    c #E7DA9C",
" E    c #725836",
" F    c #B49F7E",
" G    c #F5F3E4",
" H    c #BAA788",
" I    c #735937",
" J    c #C7B79B",
" K    c #E7E0CD",
" L    c #A08661",
" M    c #F5F2E3",
" N    c #85673F",
" O    c #95774B",
" P    c #E3D69E",
" Q    c #F6EFBA",
" R    c #5C472C",
" S    c #81643D",
" T    c #8C6C42",
" U    c #7C603B",
" V    c #614B2E",
" W    c #7B5F3A",
" X    c #715736",
" Y    c #483822",
" Z    c #523F27",
" &    c #80633D",
"0     c #C9BA9A",
"00    c #EEEBD2",
"01    c #997C54",
"02    c #3B2D1C",
"03    c #7A5E3A",
"04    c #83653E",
"05    c #5E492D",
"06    c #5B462B",
"07    c #4D3C25",
"08    c #3A2D1C",
"09    c #8B6B42",
"0a    c #17120B",
"0b    c #A58C65",
"0c    c #82653E",
"0d    c #604A2D",
"0e    c #94764B",
"0f    c #DDD199",
"0g    c #F0E8B6",
"0h    c #745A37",
"0i    c #765B38",
"0j    c #886941",
"0k    c #BFAF89",
"0l    c #E2DBB8",
"0m    c #987C53",
"0n    c #A48A62",
"0o    c #BAA781",
"0p    c #AF9972",
"0q    c #8B6C42",
"0r    c #E3DDBD",
"0s    c #D8CEAC",
"0t    c #9E835A",
"0u    c #E2DCB9",
"0v    c #B5A079",
"0w    c #93744B",
"0x    c #695132",
"0y    c #6B5333",
"0z    c #94764A",
"0A    c #D9CD97",
"0B    c #ECE5B2",
"0C    c #715836",
"0D    c #795E3A",
"0E    c #A89066",
"0F    c #B8A57B",
"0G    c #B8A57C",
"0H    c #CEC29B",
"0I    c #D0C39D",
"0J    c #E7E2BE",
"0K    c #E5E0BA",
"0L    c #705635",
"0M    c #D4CAA3",
"0N    c #E7E1BD",
"0O    c #E5E0B9",
"0P    c #D5CAA4",
"0Q    c #E8E3C1",
"0R    c #A99168",
"0S    c #DAD1A9",
"0T    c #E6E1BC",
"0U    c #E8E3C0",
"0V    c #B39F76",
"0W    c #C3B48B",
"0X    c #E6E0BB",
"0Y    c #DFD8B2",
"0Z    c #4B3A24",
"0&    c #9D8258",
"1     c #B39E74",
"10    c #6F5535",
"11    c #E0DAB3",
"12    c #E6E1BD",
"13    c #AD976D",
"14    c #6F5635",
"15    c #987B51",
"16    c #CBBD97",
"17    c #BEAD85",
"18    c #E6E0BA",
"19    c #E7E2BF",
"1a    c #C8BA91",
"1b    c #C8BA90",
"1c    c #DED6AC",
"1d    c #CDC197",
"1e    c #DED6AD",
"1f    c #94754A",
"1g    c #D6C995",
"1h    c #E8E1B0",
"1i    c #C5B688",
"1j    c #E1DAAF",
"1k    c #E2DDB3",
"1l    c #E4DFB9",
"1m    c #E7E1BE",
"1n    c #E2DCB2",
"1o    c #A68E63",
"1p    c #6A5232",
"1q    c #AB9569",
"1r    c #E2DCB3",
"1s    c #E3DDB6",
"1t    c #D8CFA6",
"1u    c #DAD2AB",
"1v    c #E4DEB7",
"1w    c #6B5233",
"1x    c #231B11",
"1y    c #927449",
"1z    c #E3DDB5",
"1A    c #E1DAB6",
"1B    c #E4DEB6",
"1C    c #D0C59A",
"1D    c #AC966A",
"1E    c #C2B289",
"1F    c #E5E0BB",
"1G    c #C0B084",
"1H    c #A2885D",
"1I    c #D9D0A8",
"1J    c #A1885C",
"1K    c #554228",
"1L    c #B5A275",
"1M    c #9C8156",
"1N    c #DCD4A9",
"1O    c #755B38",
"1P    c #DCD5AA",
"1Q    c #E4DFB8",
"1R    c #E1DCB1",
"1S    c #E2DDB4",
"1T    c #93754A",
"1U    c #D2C691",
"1V    c #E4DEAC",
"1W    c #6D5534",
"1X    c #927349",
"1Y    c #A08659",
"1Z    c #B19C70",
"1&    c #E0DAAF",
"2     c #CEC293",
"20    c #9B8054",
"21    c #A58C5F",
"22    c #DFD7A9",
"23    c #D9CFA2",
"24    c #B5A174",
"25    c #DED6A8",
"26    c #977A4E",
"27    c #382B1B",
"28    c #5F492D",
"29    c #E1DAB0",
"2a    c #E2DBB1",
"2b    c #BEAD7D",
"2c    c #B9A778",
"2d    c #E2DBB2",
"2e    c #DAD1A4",
"2f    c #775C39",
"2g    c #C9BC8E",
"2h    c #DFD8AA",
"2i    c #1E180E",
"2j    c #CEC193",
"2k    c #DCD3A9",
"2l    c #E0D9AD",
"2m    c #DBD2A6",
"2n    c #D3C99A",
"2o    c #C9BB8C",
"2p    c #554128",
"2q    c #DED7A9",
"2r    c #B39F70",
"2s    c #221A10",
"2t    c #DFD8AC",
"2u    c #DAD0A3",
"2v    c #937549",
"2w    c #CFC38E",
"2x    c #E1D9AA",
"2y    c #D3C796",
"2z    c #2F2416",
"2A    c #785D39",
"2B    c #A89061",
"2C    c #D2C995",
"2D    c #BAA876",
"2E    c #927348",
"2F    c #241C11",
"2G    c #D3CA96",
"2H    c #D5CC9A",
"2I    c #9B7F52",
"2J    c #6C5433",
"2K    c #C9BD8A",
"2L    c #7B5F3B",
"2M    c #BBA877",
"2N    c #DCD4A6",
"2O    c #BBA977",
"2P    c #433420",
"2Q    c #CFC492",
"2R    c #D5CC9C",
"2S    c #D4CB99",
"2T    c #1D170E",
"2U    c #DBD3A4",
"2V    c #DFD8AE",
"2W    c #DDD5A9",
"2X    c #DED7AB",
"2Y    c #D7CEA0",
"2Z    c #A48A5C",
"2&    c #DAD2A2",
"3     c #C5B686",
"30    c #644D30",
"31    c #463621",
"32    c #DAD2A1",
"33    c #B5A270",
"34    c #B5A271",
"35    c #9F8557",
"36    c #C4B685",
"37    c #866740",
"38    c #937449",
"39    c #D0C393",
"3a    c #947342",
"3b    c #A08149",
"3c    c #937342",
"3d    c #A88B58",
"3e    c #927242",
"3f    c #AA8D5C",
"3g    c #967543",
"3h    c #A28350",
"3i    c #A38552",
"3j    c #42331F",
"3k    c #906F43",
"3l    c #A78A57",
"3m    c #977744",
"3n    c #5B472B",
"3o    c #917142",
"3p    c #A98C5A",
"3q    c #967644",
"3r    c #634D2F",
"3s    c #AC9060",
"3t    c #A58958",
"3u    c #947443",
"3v    c #967647",
"3w    c #AB8F5F",
"3x    c #9C7D49",
"3y    c #987845",
"3z    c #8F6F43",
"3A    c #A0814E",
"3B    c #AB8F5E",
"3C    c #8E6E43",
"3D    c #A78B5B",
"3E    c #B7A076",
"3F    c #987742",
"3G    c #9F7F49",
"3H    c #927142",
"3I    c #705735",
"3J    c #866840",
"3K    c #9F804B",
"3L    c #A38551",
"3M    c #937242",
"3N    c #AE9262",
"3O    c #AE9363",
"3P    c #A88A57",
"3Q    c #977644",
"3R    c #967542",
"3S    c #493823",
"3T    c #977745",
"3U    c #A98B58",
"3V    c #917042",
"3W    c #534027",
"3X    c #A18350",
"3Y    c #AA8C5A",
"3Z    c #453521",
"3&    c #A48552",
"4     c #A0804D",
"40    c #211A10",
"41    c #A58754",
"42    c #A2824E",
"43    c #1F180F",
"44    c #9D7E4C",
"45    c #9C7D4A",
"46    c #58442A",
"47    c #A28250",
"48    c #B09567",
"49    c #A88B5B",
"4a    c #917043",
"4b    c #A58551",
"4c    c #AC8D5A",
"4d    c #917144",
"4e    c #957442",
"4f    c #997642",
"4g    c #AA8A54",
"4h    c #A58655",
"4i    c #967442",
"4j    c #AD8E5B",
"4k    c #B89D71",
"4l    c #B09260",
"4m    c #AB8C58",
"4n    c #A3824E",
"4o    c #A88853",
"4p    c #302517",
"4q    c #A88955",
"4r    c #A5854F",
"4s    c #A5844E",
"4t    c #A2814D",
"4u    c #AE8F5C",
"4v    c #664F30",
"4w    c #AA8B56",
"4x    c #AC8D59",
"4y    c #AC8C58",
"4z    c #A98956",
"4A    c #A48350",
"4B    c #B29666",
"4C    c #A7844A",
"4D    c #BA9E6E",
"4E    c #B19464",
"4F    c #AF8E56",
"4G    c #AD8D54",
"4H    c #AE8D54",
"4I    c #AA884D",
"4J    c #9A7842",
"4K    c #A38046",
"4L    c #B49661",
"4M    c #B1925C",
"4N    c #AC8B51",
"4O    c #9B7A49",
"4P    c #AE905E",
"4Q    c #B09058",
"4R    c #A4824C",
"4S    c #907043",
"4T    c #AF8F57",
"4U    c #A3824B",
"4V    c #997743",
"4W    c #40311E",
"4X    c #9B7943",
"4Y    c #987643",
"4Z    c #957343",
"4&    c #A17F49",
"5     c #B09059",
"50    c #3C2F1D",
"51    c #9B7944",
"52    c #B08F58",
"53    c #927143",
"54    c #5D482C",
"55    c #B2935D",
"56    c #9E7B45",
"57    c #A78750",
"58    c #B79A67",
"59    c #B4945B",
"5a    c #B6965D",
"5b    c #AE8D55",
"5c    c #A7864D",
"5d    c #9C7A45",
"5e    c #987644",
"5f    c #957344",
"5g    c #A27E45",
"5h    c #A07E46",
"5i    c #937244",
"5j    c #AA8547",
"5k    c #AF8C4F",
"5l    c #AB884D",
"5m    c #A98446",
"5n    c #9C7944",
"5o    c #AA8649",
"5p    c #AB8646",
"5q    c #664F31",
"5r    c #B08E51",
"5s    c #9A7844",
"5t    c #4C3B24",
"5u    c #AF8C4E",
"5v    c #A8854A",
"5w    c #A38045",
"5x    c #AB884B",
"5y    c #A4834C",
"5z    c #AC8B53",
"5A    c #BB9E6B",
"5B    c #745937",
"5C    c #5A452B",
"5D    c #997745",
"5E    c #8C6D43",
"5F    c #876940",
"5G    c #3B2E1C",
"5H    c #9F7C46",
"5I    c #3D2F1D",
"5J    c #9D7B46",
"5K    c #947344",
"5L    c #BC9B61",
"5M    c #AC894F",
"5N    c #B19056",
"5O    c #C1A36D",
"5P    c #544128",
"5Q    c #2D2315",
"5R    c #6D5434",
"5S    c #927244",
"5T    c #BA985B",
"5U    c #C1A163",
"5V    c #987746",
"5W    c #907044",
"5X    c #B69559",
"5Y    c #C7A971",
"5Z    c #A07E49",
"5&    c #C3A266",
"6     c #C8A96C",
"60    c #A3804A",
"61    c #8F6F44",
"62    c #B69352",
"63    c #CAAB71",
"64    c #BA995D",
"65    c #917044",
"66    c #B69251",
"67    c #977646",
"68    c #C7A35E",
"69    c #CCAB6D",
"6a    c #1C160D",
"6b    c #A6834B",
"6c    c #BB9654",
"6d    c #BA9654",
"6e    c #C7A157",
"6f    c #AA874D",
"6g    c #9C7A48",
"                                                                         0 0 0 0 1 2 2 3 0 0 0                     0 0 0 0 4 5 0 0 0 6 4 0 0 0 0 0 0 7 8 9 a 0 0 0 0 0 0 0 0 0 0 0 0 a 9 8 b",
"                                         0 0 0 0 0 0 0 0 0 0 0 0 0 0 0 0 0 0 0 0 c d   e 0 0 0 0 0 0 0 0 0 0 0 0 0 0 0 0 f g h i j i 2 g a 0 0 0 0 0 8 k l m n 0 0 0 0 0 0 0 0 0 0 n m l o 8",
" 0 0 0 0 0 0 0 0 0 0 0 0 0 0 0 0 0 0 0 0 0 0 0 0 0 0 0 0 0 0 0 0 0 0 0 0 0 0 0 4 p q r c 0 0 0 0 0 0 0 0 0 0 0 0 0 0 0 0 3 s t u a v t w c 0 0 0 0 x 9 y z A B C 0 0 0 0 0 0 0 0 C B A z D 9",
" 0 0 0 0 0 0 0 0 0 0 0 0 0 0 0 0 0 0 0 0 0 0 0 0 0 0 0 0 0 0 0 0 0 0 0 0 0 0 0 E F G H I 0 0 0 0 0 0 0 0 0 0 0 0 0 0 0 0 i J K L f H M J N 0 0 0 0 0 a O P Q P O C 0 0 0 0 0 0 C O P Q P O a",
" 0 0 0 0 0 0 0 0 0 0 0 0 0 0 0 0 0 0 0 0 0 0 R S T U 0 V W X 0 0 Y U a Z 0 0 0 &0 00010203 T0405 006 S &07 Y U0308 0 0 006 S09 n0a 50b0c0d 0 0 0 0 0 0 n0e0f0g0f0e0h 0 0 0 00h0e0f0g0f0e n 0",
" 0 0 f a03 N N e e i 0 0 0 00i0j e e e 8 0 0 50k0l0m c0n0o0p03 U0m0o0o0m a 0 00q0r0s N I0t0u0k & 0 50k0k W0m0o0v0w0x 00y N T U 00y N T 5 0 0 0 0 0 0 0 0 C0z0A0B0A0z0C 0 00C0z0A0B0A0z C 0 0",
" 00D0E0F0G0H0I0J0K0E0L 0 0 50E0M0N0J0O0E0x 0 30P0Q0R0S0T0U0J0V0W0X0J0Q0Y0q 00Z0&0X1 100&11121314 x150T1617180J191a0c 0041b1c0q 0 N1d1e T 0 0 0 0 0 0 0 0 0 C1f1g1h1g1f0y0y1f1g1h1g1f C 0 0 0",
" 0 31i1j1k1l1m1m1n1o1p 0 11q1r1s1t1u1v1q1w1x1y1z1A1B1C1D1E121F1r1G1H1I1z1J1K E1L1n1M1M1N1n1q U 01O1L0K1F1P1L1H1Q1N0q 0 e1R1C 3 0 e1k1S e 0 0 0 0 0 0 0 0 0 00h1T1U1V1U1T1T1U1V1U1T0h 0 0 0 0",
" 01W1X1Y1Y1Z1&2 20 a 00D2122231Y 3242526272821292a2b1X X2c2d2e1Y2f S2g2h1X2i N2j2k1Z2l2m200D 0 0 c2n2d2 200L e2h2o0c2p1Y2q2r1O2s1X2t2u T 0 0 0 0 0 0 0 0 0 0 00C2v2w2x2y2y2x2w2v0C 0 0 0 0 0",
" 0 02z2A2B2C2D2E1p 02F2E2G2H2I2J042K2K N 02L2M2N2O2A2P 32Q2R2I0L 0092S2Q0j2T2E2U2V2W2X2Y2I28 0282Z2&3 2E30312I32330i f3432352p2p352U3637 0 0 0 0 0 0 0 0 0 0 0 00y38391j1j39380y 0 0 0 0 0 0",
" 0 V &3a3b3c0D0Z 0 0143c3d3e2J E3e3f3g0i 00j3h3i0j j3j3k3l3m1O 03n3o3p3q0i3r3e3s3t3u3v3w3x 8 02L3y3d3z28 0 W3y3d3k2P N3A3l e 0 E3a3B3a03 0 0 0 0 0 0 0 0 0 0 0 00y3C3D3E3E3D3C0y 0 0 0 0 0 0",
" n3C3F3G3H0i Z10 13I3J3K3L 3 E3M3N3O3H R j3k3P3Q2A 02A3R3P3k3S 0 n3T3U3V3W2L3y3U3C0x i3X3Y3k3Z093&4 3J 0403C41420j433C3U440c 0 5453f3k46 0 0 0 0 0 0 0 0 0 0 00C3C4748494948473C0C 0 0 0 0 0",
"4a4b4c4d e e3H4e4f4e e4g4h3C4i4j4k4l3C40144e4m3M3r 0 34n4o0q 04p3C4q4r c 0 c4s4t37 0 X3Q4u3a4v4a4w3g2f 00y3a4x4e3I0d3M4y4i I 0 e4y4z0q 0 0 0 0 0 0 0 0 0 0 00h3C4A4B4A3C3C4A4B4A3C0h 0 0 0 0",
"4C4D4E4m4F4G4H4F4I4J3J4K4L4M4N4O4P4Q e 0 N4R4Q e 02P4S4T4U37 0034V4M4V2f4W4S4G4X U 0 X4Y4M4V0h4Y4F4Z1p 0044&5 4S5003515253 Y544Z5556 S 0 0 0 0 0 0 0 0 0 0 C3z5758573z0y0y3z5758573z C 0 0 0",
"56595a5b5c5d5e5f e 5 E3z5g5h5i095j5g04 0 e5k5l09 00Z4a5m5n a 0 N5g5o4a Y 75i5p5f5q 03r5f5r5n2f5s5m4a5t 0 e5u5v0j 0375w5x0q 0 55y5a5i05 0 0 0 0 0 0 0 0 0 C3z5z5A5z3z0C 0 00C3z5z5A5z3z C 0 0",
"0c e e c N035B0x 0 0 00y N S5C U T N2J 0 i5D5D 5 0 0045E045t 00h5F5E0c 0 0 N e37 0 05G3z5H3z5I & T04 0 0 i5J5K0D 00C5K5D2f0L5K5L5M N 0 0 0 0 0 0 0 0 0 n3k5N5O5N3k0h 0 0 0 00h3k5N5O5N3k n 0",
" 0 0 0 0 0 0 0 0 0 0 0 0 0 0 0 0 0 0 0 0 0 W W 0 0 0 0 0 0 0 0 0 0 0 0 0 0 0 0 0 0 0 05P0c5t 0 0 0 0 0 05Q S5R 0 0 0051p n5S5T5U5V14 0 0 0 0 0 0 0 0 a5W5X5Y5X5W C 0 0 0 0 0 0 C5W5X5Y5X5W a",
" 0 0 0 0 0 0 0 0 0 0 0 0 0 0 0 0 0 0 0 0 0 0 0 0 0 0 0 0 0 0 0 0 0 0 0 0 0 0 0 0 0 0 0 0 0 0 0 0 0 0 0 0 0 0 0 0 0 0 0 S5Z5&6 60 5 0 0 0 0 0 0 0 0 x6162636465 C 0 0 0 0 0 0 0 0 C6564636661",
" 0 0 0 0 0 0 0 0 0 0 0 0 0 0 0 0 0 0 0 0 0 0 0 0 0 0 0 0 0 0 0 0 0 0 0 0 0 0 0 0 0 0 0 0 0 0 0 0 0 0 0 0 0 0 0 0 0 01p6768695k S6a 0 0 0 0 0 0 0 0 0 86b6c4d n 0 0 0 0 0 0 0 0 0 0 n4d6d6b 8",
"6e6e6e6e6e6e6e6e6e6e6e6e6e6e6e6e6e6e6e 0 0 0 0 0 06e6e6e6e6e6e6e6e6e6e6e6e6e6e6e6e 0 0 0 0 0 0 06e6e6e 0 0 0 0 0 0 00Z656f6g044v 0 0 0 0 0 0 0 0 0 0 7 861 a 0 0 0 0 0 0 0 0 0 0 0 0 a61 8 b"};

